<?xml version="1.0" encoding="UTF-8" standalone="no"?>
<!-- Created with Inkscape (http://www.inkscape.org/) -->

<svg
   xmlns:dc="http://purl.org/dc/elements/1.1/"
   xmlns:cc="http://creativecommons.org/ns#"
   xmlns:rdf="http://www.w3.org/1999/02/22-rdf-syntax-ns#"
   xmlns:svg="http://www.w3.org/2000/svg"
   xmlns="http://www.w3.org/2000/svg"
   xmlns:sodipodi="http://sodipodi.sourceforge.net/DTD/sodipodi-0.dtd"
   xmlns:inkscape="http://www.inkscape.org/namespaces/inkscape"
   width="178.6875"
   height="155.46875"
   id="svg2"
   version="1.1"
   inkscape:version="0.48.3.1 r9886"
   sodipodi:docname="sdf_logo.svg">
  <defs
     id="defs4" />
  <sodipodi:namedview
     id="base"
     pagecolor="#ffffff"
     bordercolor="#666666"
     borderopacity="1.0"
     inkscape:pageopacity="0.0"
     inkscape:pageshadow="2"
     inkscape:zoom="2"
     inkscape:cx="257.26383"
     inkscape:cy="-47.849535"
     inkscape:document-units="px"
     inkscape:current-layer="layer1"
     showgrid="false"
     showguides="true"
     inkscape:guide-bbox="true"
     inkscape:window-width="2560"
     inkscape:window-height="1524"
     inkscape:window-x="2560"
     inkscape:window-y="24"
     inkscape:window-maximized="1"
     fit-margin-top="0"
     fit-margin-left="0"
     fit-margin-right="0"
     fit-margin-bottom="0">
    <sodipodi:guide
       orientation="0,1"
       position="331.27232,-248.78629"
       id="guide2997" />
  </sodipodi:namedview>
  <metadata
     id="metadata7">
    <rdf:RDF>
      <cc:Work
         rdf:about="">
        <dc:format>image/svg+xml</dc:format>
        <dc:type
           rdf:resource="http://purl.org/dc/dcmitype/StillImage" />
        <dc:title></dc:title>
      </cc:Work>
    </rdf:RDF>
  </metadata>
  <g
     inkscape:label="Layer 1"
     inkscape:groupmode="layer"
     id="layer1"
     transform="translate(-8.9062509,-5.8750009)">
    <path
       style="font-size:144px;font-style:normal;font-weight:normal;line-height:125%;letter-spacing:0px;word-spacing:0px;fill:#620018;fill-opacity:1;stroke:none;font-family:Sans"
       d="m 127.28125,5.8750009 0,63.2812501 c -0.0222,-0.0197 -0.0403,-0.0428 -0.0625,-0.0625 -9.5157,-8.48427 -24.43757,-12.74989 -44.781249,-12.75 l -27.9375,0 c -12.73335,-8.91535 -30.34375,-11.55466 -30.34375,-23.875 0,-10.51199 9.4985,-13.40625 17.5625,-13.40625 7.48799,0 11.531,1.30751 18.875,4.1875 l 2,-13.25 c -6.912,-2.4479901 -14.81351,-3.5937501 -21.4375,-3.5937501 -0.567,0 -1.12868,-0.0185 -1.6875,0 -17.32333,0.57435 -30.5625001,10.0457701 -30.5625001,27.3437501 0,31.24797 43.1875001,25.06728 43.1875001,47.53125 0,11.80799 -11.51076,16.40625 -19.71875,16.40625 -7.344,0 -15.97901,-2.89025 -20.875,-4.90625 l -1.46875,13.406249 c 6.62399,2.16 13.53775,4.1875 20.59375,4.1875 8.50499,0 16.37454,-1.54686 22.625,-4.90625 l 0,55.875 21.375,0 0,-5.34375 1.4375,0 0,-23.75 -0.78125,0 0,-14.34375 -3.59375,0 0,8.84375 0.90625,0 0,2.875 -7.40625,0 0,-2.875 0.90625,0 0,-16.21875 1.71875,0 0,-0.0312 7.46875,0 0,-1.15625 6.5,0 0,-1.84375 -4.78125,0 0,-5.375 -2.75,0 0,-5.999999 2.75,0 0,-4 18.5,0 0,4 2.75,0 0,5.999999 -2.75,0 0,5.375 -5.25,0 0,1.84375 6.96875,0 0,1.15625 7.468749,0 0,0.0312 1.71875,0 0,16.21875 0.90625,0 0,2.875 -7.406249,0 0,-2.875 0.906249,0 0,-8.84375 -3.593749,0 0,14.34375 -1.25,0 0,23.75 1.4375,0 0,4.78125 c 20.091469,-1.67814 24.331049,-6.93634 29.749999,-12.1875 8.81585,-8.54288 13.9477,-20.7118 14.3125,-37.71875 0.003,-0.14478 -0.002,-0.29208 0,-0.4375 0.01,-0.56111 0.0312,-1.11679 0.0312,-1.6875 0,-0.5625 -0.022,-1.10309 -0.0312,-1.65625 l 0,-46.374999 41.625,0 0,-11.9375 -41.625,0 0,-30.9375 46.125,0 0,-11.9687501 -60.3125,0 z M 83.343751,132.25 l 0,23.75 1.46875,0 0,5.3125 c 0.82015,-0.008 1.65348,-0.0151 2.4375,-0.0312 l 0,-5.28125 1.4375,0 0,-23.75 -5.34375,0 z"
       id="path3036"
       inkscape:connector-curvature="0"
       inkscape:export-filename="/home/nkoenig/work/sdf/doc/sdf_logo.png"
       inkscape:export-xdpi="90"
       inkscape:export-ydpi="90" />
  </g>
</svg>
